<svg xmlns="http://www.w3.org/2000/svg">
    <path d="M-229.8,220.67" transform="translate(-3.17 0)" style="fill:none;stroke:#000;stroke-miterlimit:10"/>
    <line y1="152.13" x2="296.9" y2="152.13" style="fill:none;stroke:#000;stroke-miterlimit:10"/>
    <path d="M306.1,152.13a30.12,30.12,0,0,0-8.54,4.75l1.72-4.75-1.72-4.76A29.91,29.91,0,0,0,306.1,152.13Z"
          transform="translate(-3.17 0)"/>
    <line x1="272.33" y1="137.48" x2="272.33" y2="165.46" style="fill:none;stroke:#000;stroke-miterlimit:10"/>
    <line x1="211.9" y1="137.48" x2="211.9" y2="165.46" style="fill:none;stroke:#000;stroke-miterlimit:10"/>
    <line x1="91.2" y1="137.48" x2="91.2" y2="165.46" style="fill:none;stroke:#000;stroke-miterlimit:10"/>
    <line x1="30.94" y1="138.39" x2="30.94" y2="166.37" style="fill:none;stroke:#000;stroke-miterlimit:10"/>
    <line x1="151.22" y1="302.93" x2="151.22" y2="6.04" style="fill:none;stroke:#000;stroke-miterlimit:10"/>
    <path d="M154.39,0a30.31,30.31,0,0,0,4.75,8.55l-4.75-1.72-4.76,1.72A30.34,30.34,0,0,0,154.39,0Z"
          transform="translate(-3.17 0)"/>
    <line x1="136.57" y1="30.61" x2="164.55" y2="30.61" style="fill:none;stroke:#000;stroke-miterlimit:10"/>
    <line x1="136.57" y1="91.04" x2="164.55" y2="91.04" style="fill:none;stroke:#000;stroke-miterlimit:10"/>
    <line x1="136.57" y1="211.73" x2="164.55" y2="211.73" style="fill:none;stroke:#000;stroke-miterlimit:10"/>
    <line x1="137.48" y1="272" x2="165.46" y2="272" style="fill:none;stroke:#000;stroke-miterlimit:10"/>
    <text class="y-minus-r" transform="translate(166.82 279.29)" style="font-size:18px;font-family:MyriadPro-Regular, Myriad Pro">R
        <tspan x="9.68" y="0" style="font-size:12px"></tspan>
    </text>
    <text class="x-minus-r" transform="translate(25.64 182.79)" style="font-size:18px;font-family:MyriadPro-Regular, Myriad Pro">R
        <tspan x="9.68" y="0" style="font-size:12px"></tspan>
    </text>
    <text class="y-plus-r" transform="translate(165.46 37.09)" style="font-size:18px;font-family:MyriadPro-Regular, Myriad Pro">R
        <tspan x="9.68" y="0" style="font-size:12px"></tspan>
    </text>
    <text class="x-plus-r" transform="translate(267.36 182.79)" style="font-size:18px;font-family:MyriadPro-Regular, Myriad Pro">R
        <tspan x="9.68" y="0" style="font-size:12px"></tspan>
    </text>
    <text class="x-minus-half-r" transform="translate(75.31 182.79)" style="font-size:18px;font-family:MyriadPro-Regular, Myriad Pro">R / 2
    </text>
    <text class="y-plus-half-r" transform="translate(166.82 93.68)" style="font-size:18px;font-family:MyriadPro-Regular, Myriad Pro">R / 2
    </text>
    <text class="x-plus-half-r" transform="translate(198.59 182.79)" style="font-size:18px;font-family:MyriadPro-Regular, Myriad Pro">R / 2
    </text>
    <text class="y-minus-half-r" transform="translate(166.82 215.24)" style="font-size:18px;font-family:MyriadPro-Regular, Myriad Pro">R / 2
    </text>
    <rect x="151.47" y="30.61" width="60.43" height="120.86"
          style="fill:#2f15ff;stroke:#231f20;stroke-linecap:round;stroke-miterlimit:10;opacity:0.4"/>
    <path d="M275.5,151.47C275.5,218.09,221,272,153.72,272V151.47Z" transform="translate(-3.17 0)"
          style="fill:#6a0062;stroke:#231f20;stroke-linecap:round;stroke-miterlimit:10;opacity:0.4"/>
    <polyline points="150.56 81.34 150.56 152.38 30.94 152.38"
              style="fill:#0047aa;stroke:#231f20;stroke-linecap:round;stroke-miterlimit:10;opacity:0.4"/>
</svg>